<svg width="52" height="52" viewBox="0 0 52 52" fill="none" xmlns="http://www.w3.org/2000/svg">
<path d="M23.5625 26C23.5625 25.5179 23.7055 25.0466 23.9733 24.6458C24.2411 24.245 24.6218 23.9325 25.0672 23.748C25.5126 23.5636 26.0027 23.5153 26.4755 23.6093C26.9484 23.7034 27.3827 23.9355 27.7236 24.2764C28.0645 24.6173 28.2966 25.0516 28.3907 25.5245C28.4847 25.9973 28.4364 26.4874 28.2519 26.9328C28.0675 27.3782 27.755 27.7589 27.3542 28.0267C26.9534 28.2945 26.4821 28.4375 26 28.4375C25.3535 28.4375 24.7335 28.1807 24.2764 27.7236C23.8193 27.2665 23.5625 26.6465 23.5625 26ZM17.0625 28.4375C17.5446 28.4375 18.0159 28.2945 18.4167 28.0267C18.8175 27.7589 19.13 27.3782 19.3144 26.9328C19.4989 26.4874 19.5472 25.9973 19.4532 25.5245C19.3591 25.0516 19.127 24.6173 18.7861 24.2764C18.4452 23.9355 18.0109 23.7034 17.538 23.6093C17.0652 23.5153 16.5751 23.5636 16.1297 23.748C15.6843 23.9325 15.3036 24.245 15.0358 24.6458C14.768 25.0466 14.625 25.5179 14.625 26C14.625 26.6465 14.8818 27.2665 15.3389 27.7236C15.796 28.1807 16.416 28.4375 17.0625 28.4375ZM34.9375 28.4375C35.4196 28.4375 35.8909 28.2945 36.2917 28.0267C36.6925 27.7589 37.005 27.3782 37.1894 26.9328C37.3739 26.4874 37.4222 25.9973 37.3282 25.5245C37.2341 25.0516 37.002 24.6173 36.6611 24.2764C36.3202 23.9355 35.8859 23.7034 35.413 23.6093C34.9402 23.5153 34.4501 23.5636 34.0047 23.748C33.5593 23.9325 33.1786 24.245 32.9108 24.6458C32.643 25.0466 32.5 25.5179 32.5 26C32.5 26.6465 32.7568 27.2665 33.2139 27.7236C33.671 28.1807 34.291 28.4375 34.9375 28.4375ZM47.125 13V39C47.125 39.862 46.7826 40.6886 46.1731 41.2981C45.5636 41.9076 44.7369 42.25 43.875 42.25H16.8594L10.2375 47.97L10.2192 47.9842C9.63428 48.4802 8.89187 48.7516 8.12499 48.75C7.64758 48.7489 7.17617 48.6436 6.74374 48.4412C6.18285 48.182 5.7084 47.7668 5.37704 47.2453C5.04568 46.7238 4.87139 46.1179 4.87499 45.5V13C4.87499 12.138 5.2174 11.3114 5.8269 10.7019C6.43639 10.0924 7.26304 9.75 8.12499 9.75H43.875C44.7369 9.75 45.5636 10.0924 46.1731 10.7019C46.7826 11.3114 47.125 12.138 47.125 13ZM43.875 13H8.12499V45.5L15.1876 39.4062C15.4813 39.1473 15.8585 39.003 16.25 39H43.875V13Z" fill="#F67B21"/>
</svg>
