<svg width="53" height="52" viewBox="0 0 53 52" fill="none" xmlns="http://www.w3.org/2000/svg">
<path d="M47.1497 11.8503L40.6497 5.35031C40.4988 5.19922 40.3195 5.07936 40.1223 4.99759C39.925 4.91581 39.7136 4.87372 39.5 4.87372C39.2864 4.87372 39.075 4.91581 38.8777 4.99759C38.6805 5.07936 38.5012 5.19922 38.3503 5.35031L18.8503 24.8503C18.6995 25.0013 18.5798 25.1806 18.4983 25.3779C18.4167 25.5751 18.3748 25.7865 18.375 26V32.5C18.375 32.931 18.5462 33.3443 18.851 33.649C19.1557 33.9538 19.569 34.125 20 34.125H26.5C26.7135 34.1252 26.9249 34.0833 27.1221 34.0017C27.3194 33.9202 27.4987 33.8005 27.6497 33.6497L47.1497 14.1497C47.3008 13.9988 47.4206 13.8195 47.5024 13.6223C47.5842 13.425 47.6263 13.2135 47.6263 13C47.6263 12.7864 47.5842 12.575 47.5024 12.3777C47.4206 12.1804 47.3008 12.0012 47.1497 11.8503ZM25.8277 30.875H21.625V26.6723L34.625 13.6723L38.8277 17.875L25.8277 30.875ZM41.125 15.5777L36.9223 11.375L39.5 8.79734L43.7027 13L41.125 15.5777ZM46 26V42.25C46 43.1119 45.6576 43.9386 45.0481 44.5481C44.4386 45.1576 43.612 45.5 42.75 45.5H10.25C9.38805 45.5 8.5614 45.1576 7.9519 44.5481C7.34241 43.9386 7 43.1119 7 42.25V9.75C7 8.88804 7.34241 8.06139 7.9519 7.4519C8.5614 6.84241 9.38805 6.5 10.25 6.5H26.5C26.931 6.5 27.3443 6.6712 27.649 6.97595C27.9538 7.28069 28.125 7.69402 28.125 8.125C28.125 8.55597 27.9538 8.9693 27.649 9.27404C27.3443 9.57879 26.931 9.75 26.5 9.75H10.25V42.25H42.75V26C42.75 25.569 42.9212 25.1557 43.226 24.8509C43.5307 24.5462 43.944 24.375 44.375 24.375C44.806 24.375 45.2193 24.5462 45.524 24.8509C45.8288 25.1557 46 25.569 46 26Z" fill="#F67B21"/>
</svg>
