<svg width="52" height="52" viewBox="0 0 52 52" fill="none" xmlns="http://www.w3.org/2000/svg">
<path d="M34.125 30.875C34.125 31.306 33.9538 31.7193 33.649 32.0241C33.3443 32.3288 32.931 32.5 32.5 32.5H19.5C19.069 32.5 18.6557 32.3288 18.351 32.0241C18.0462 31.7193 17.875 31.306 17.875 30.875C17.875 30.444 18.0462 30.0307 18.351 29.726C18.6557 29.4212 19.069 29.25 19.5 29.25H32.5C32.931 29.25 33.3443 29.4212 33.649 29.726C33.9538 30.0307 34.125 30.444 34.125 30.875ZM32.5 22.75H19.5C19.069 22.75 18.6557 22.9212 18.351 23.226C18.0462 23.5307 17.875 23.944 17.875 24.375C17.875 24.806 18.0462 25.2193 18.351 25.5241C18.6557 25.8288 19.069 26 19.5 26H32.5C32.931 26 33.3443 25.8288 33.649 25.5241C33.9538 25.2193 34.125 24.806 34.125 24.375C34.125 23.944 33.9538 23.5307 33.649 23.226C33.3443 22.9212 32.931 22.75 32.5 22.75ZM43.875 9.75001V43.875C43.875 44.737 43.5326 45.5636 42.9231 46.1731C42.3136 46.7826 41.487 47.125 40.625 47.125H11.375C10.513 47.125 9.6864 46.7826 9.0769 46.1731C8.46741 45.5636 8.125 44.737 8.125 43.875V9.75001C8.125 8.88806 8.46741 8.06141 9.0769 7.45191C9.6864 6.84242 10.513 6.50001 11.375 6.50001H18.7403C19.6534 5.47773 20.772 4.65981 22.0231 4.0998C23.2741 3.53979 24.6293 3.25031 26 3.25031C27.3707 3.25031 28.7259 3.53979 29.9769 4.0998C31.228 4.65981 32.3466 5.47773 33.2597 6.50001H40.625C41.487 6.50001 42.3136 6.84242 42.9231 7.45191C43.5326 8.06141 43.875 8.88806 43.875 9.75001ZM19.5 13H32.5C32.5 11.2761 31.8152 9.6228 30.5962 8.40382C29.3772 7.18483 27.7239 6.50001 26 6.50001C24.2761 6.50001 22.6228 7.18483 21.4038 8.40382C20.1848 9.6228 19.5 11.2761 19.5 13ZM40.625 9.75001H35.1914C35.5611 10.7937 35.75 11.8928 35.75 13V14.625C35.75 15.056 35.5788 15.4693 35.274 15.7741C34.9693 16.0788 34.556 16.25 34.125 16.25H17.875C17.444 16.25 17.0307 16.0788 16.726 15.7741C16.4212 15.4693 16.25 15.056 16.25 14.625V13C16.25 11.8928 16.4389 10.7937 16.8086 9.75001H11.375V43.875H40.625V9.75001Z" fill="#F67B21"/>
</svg>
