<svg width="53" height="52" viewBox="0 0 53 52" fill="none" xmlns="http://www.w3.org/2000/svg">
<path d="M47.625 34.125H13.4716C14.0119 33.0606 14.5542 31.9658 15.0966 30.8527C18.1434 31.1878 21.7144 29.0692 25.7931 24.5273C26.8088 27.2614 28.7283 30.81 32.0047 30.875C33.845 30.9116 35.6833 29.8188 37.5744 27.5498C38.9536 29.1992 41.7953 30.875 47.625 30.875C48.056 30.875 48.4693 30.7038 48.7741 30.3991C49.0788 30.0943 49.25 29.681 49.25 29.25C49.25 28.819 49.0788 28.4057 48.7741 28.101C48.4693 27.7962 48.056 27.625 47.625 27.625C41.4439 27.625 39.6158 25.5023 39.5 24.3527C39.5183 24.0039 39.4189 23.6592 39.2178 23.3737C39.0167 23.0882 38.7255 22.8786 38.3909 22.7784C38.0434 22.674 37.6711 22.6869 37.3315 22.815C36.992 22.9431 36.704 23.1794 36.512 23.4873C34.0603 27.2533 32.5755 27.6372 32.0595 27.625C30.3817 27.5925 28.6755 23.66 28.0905 20.8366C28.0281 20.5342 27.8808 20.2558 27.6659 20.0341C27.451 19.8124 27.1773 19.6565 26.877 19.5846C26.5767 19.5128 26.2622 19.528 25.9702 19.6285C25.6782 19.729 25.4209 19.9106 25.2284 20.152C21.1253 25.2992 18.375 27.0319 16.6627 27.4808C18.3872 23.6478 19.675 20.282 20.4997 17.4484C21.885 12.6872 21.9866 9.35797 20.8064 7.27187C20.197 6.17906 18.9092 4.875 16.3255 4.875C13.0633 4.875 10.4897 7.95844 9.26282 13.3352C8.5336 16.5263 8.41376 20.0809 8.93376 23.0852C9.45376 26.0894 10.5324 28.275 12.1005 29.573C11.3428 31.1411 10.5709 32.6727 9.81938 34.125H5.37501C4.94403 34.125 4.53071 34.2962 4.22596 34.601C3.92121 34.9057 3.75001 35.319 3.75001 35.75C3.75001 36.181 3.92121 36.5943 4.22596 36.8991C4.53071 37.2038 4.94403 37.375 5.37501 37.375H8.09892C5.79954 41.6406 4.01204 44.6144 3.9836 44.6631C3.86775 44.8461 3.78965 45.0504 3.75388 45.264C3.71811 45.4776 3.72541 45.6962 3.77533 45.907C3.82525 46.1177 3.9168 46.3163 4.04459 46.4912C4.17238 46.6661 4.33384 46.8136 4.51947 46.9252C4.7051 47.0367 4.91115 47.1101 5.12553 47.1409C5.33991 47.1717 5.55828 47.1593 5.7678 47.1045C5.97733 47.0497 6.17379 46.9535 6.34563 46.8217C6.51747 46.6899 6.66122 46.5251 6.76845 46.3369C6.79891 46.2841 9.05766 42.5202 11.7856 37.375H47.625C48.056 37.375 48.4693 37.2038 48.7741 36.8991C49.0788 36.5943 49.25 36.181 49.25 35.75C49.25 35.319 49.0788 34.9057 48.7741 34.601C48.4693 34.2962 48.056 34.125 47.625 34.125ZM12.4316 14.0583C13.24 10.5097 14.8061 8.125 16.3255 8.125C17.4081 8.125 17.7677 8.50281 17.9769 8.87047C18.5863 9.95312 19.3013 13.7841 13.5772 26.4184C11.8994 24.1272 11.3286 18.8906 12.4316 14.0583Z" fill="#F67B21"/>
</svg>
